<!-- 사진이 없을 때 표지 .art 안에 붙여 넣는 그림: 내려가는 선. 숫자 두 개는 편에 맞게 고친다 -->
<svg viewBox="0 0 1080 900" xmlns="http://www.w3.org/2000/svg" font-family="Pretendard Variable, Pretendard, sans-serif">
  <defs>
    <linearGradient id="g1" x1="0" y1="0" x2="0" y2="1"><stop offset="0" stop-color="#2dd4bf" stop-opacity=".42"/><stop offset="1" stop-color="#2dd4bf" stop-opacity="0"/></linearGradient>
    <filter id="glow" x="-20%" y="-20%" width="140%" height="140%"><feGaussianBlur stdDeviation="12" result="b"/><feMerge><feMergeNode in="b"/><feMergeNode in="SourceGraphic"/></feMerge></filter>
  </defs>
  <g stroke="#ffffff" stroke-opacity=".07" stroke-width="2">
    <path d="M0,250H1080M0,390H1080M0,530H1080M0,670H1080M0,810H1080"/>
    <path d="M120,150V900M288,150V900M456,150V900M624,150V900M792,150V900M960,150V900"/>
  </g>
  <text x="470" y="700" font-size="820" font-weight="800" fill="#ffffff" fill-opacity=".055">$</text>
  <path d="M40,250 L190,230 L300,295 L420,275 L540,440 L650,410 L770,560 L880,540 L1040,670 L1040,900 L40,900 Z" fill="url(#g1)"/>
  <path d="M40,250 L190,230 L300,295 L420,275 L540,440 L650,410 L770,560 L880,540 L1040,670" fill="none" stroke="#2dd4bf" stroke-width="13" stroke-linecap="round" stroke-linejoin="round" filter="url(#glow)"/>
  <circle cx="40" cy="250" r="15" fill="#ffffff"/>
  <circle cx="1040" cy="670" r="21" fill="#2dd4bf" stroke="#ffffff" stroke-width="7"/>
  <text x="62" y="212" font-size="62" font-weight="800" fill="#ffffff" fill-opacity=".9" letter-spacing="-2">1,550원</text>
  <text x="860" y="690" text-anchor="end" font-size="78" font-weight="800" fill="#2dd4bf" letter-spacing="-3">1,350원</text>
</svg>
